<?xml version="1.0" standalone="no"?>
<!DOCTYPE svg PUBLIC "-//W3C//DTD SVG 20010904//EN"
 "http://www.w3.org/TR/2001/REC-SVG-20010904/DTD/svg10.dtd">
<svg version="1.0" xmlns="http://www.w3.org/2000/svg"
 width="136.000000pt" height="136.000000pt" viewBox="0 0 136.000000 136.000000"
 preserveAspectRatio="xMidYMid meet">

<g transform="translate(0.000000,136.000000) scale(0.100000,-0.100000)"
fill="#000000" stroke="none">
<path d="M1175 1349 c-187 -10 -313 -47 -435 -130 -63 -42 -150 -130 -203
-204 -34 -48 -38 -51 -83 -52 -145 -5 -283 -92 -348 -220 -34 -67 -20 -77 114
-87 52 -4 96 -9 99 -12 13 -13 -49 -114 -97 -158 -61 -56 -116 -161 -178 -343
-36 -105 -38 -113 -22 -129 15 -16 24 -14 130 22 172 59 305 129 346 183 22
30 52 53 91 71 l59 28 6 -45 c3 -25 6 -68 6 -95 0 -85 26 -106 92 -72 112 58
208 215 208 340 0 41 3 46 58 85 225 165 329 377 333 681 0 64 -2 121 -5 126
-9 15 -43 17 -171 11z m102 -180 c-4 -60 -9 -114 -12 -119 -10 -15 -106 27
-142 62 -37 36 -73 103 -73 136 0 24 19 27 154 30 l79 2 -6 -111z m-280 1 c37
-89 120 -165 210 -191 l41 -12 -14 -39 c-63 -180 -218 -332 -477 -468 l-67
-35 -129 129 -130 129 34 66 c43 86 134 229 181 286 56 69 156 144 242 181
l77 34 9 -23 c4 -12 15 -38 23 -57z m-547 -286 c0 -4 -19 -42 -42 -85 -48 -88
-41 -86 -168 -71 l-55 7 39 42 c21 24 54 52 73 64 53 33 153 61 153 43z m57
-379 c54 -58 99 -109 101 -113 1 -5 -13 -15 -31 -24 l-34 -16 -92 92 -92 93
17 36 c10 20 21 37 25 37 4 0 52 -47 106 -105z m-160 -67 l23 -21 -51 -53
c-43 -46 -48 -57 -39 -74 17 -31 47 -24 99 25 l48 45 21 -23 c21 -22 21 -23 3
-54 -11 -17 -35 -43 -55 -58 -35 -27 -275 -130 -283 -121 -7 7 74 206 107 264
25 43 78 92 99 92 3 0 15 -10 28 -22z m537 -30 c-11 -60 -51 -136 -94 -177
-23 -23 -46 -41 -51 -41 -5 0 -9 21 -9 48 0 26 -3 63 -6 82 -6 36 -6 36 68 77
92 51 99 52 92 11z"/>
</g>
</svg>
