<?xml version="1.0" standalone="no"?>
<!DOCTYPE svg PUBLIC "-//W3C//DTD SVG 20010904//EN"
 "http://www.w3.org/TR/2001/REC-SVG-20010904/DTD/svg10.dtd">
<svg version="1.0" xmlns="http://www.w3.org/2000/svg"
 width="152.000000pt" height="153.000000pt" viewBox="0 0 152.000000 153.000000"
 preserveAspectRatio="xMidYMid meet">

<g transform="translate(0.000000,153.000000) scale(0.100000,-0.100000)"
fill="#000000" stroke="none">
<path d="M453 1510 c-65 -39 -81 -128 -34 -191 12 -16 21 -30 21 -33 0 -3 -42
-7 -92 -8 l-93 -3 -3 -342 c-1 -189 -6 -343 -10 -343 -5 0 -19 11 -32 25 -46
49 -140 41 -181 -17 -89 -124 60 -269 182 -179 16 12 30 21 33 21 3 0 7 -42 8
-92 l3 -93 58 -3 c45 -2 59 0 63 13 9 23 -6 32 -58 34 -16 1 -18 12 -18 84 0
51 -5 88 -12 95 -19 19 -64 14 -104 -13 -46 -32 -78 -32 -109 0 -32 31 -32 74
0 109 36 39 79 32 133 -21 21 -20 70 -16 82 6 5 11 10 54 10 95 l0 76 79 0
c59 0 84 4 95 16 24 23 20 72 -9 106 -14 16 -25 42 -25 57 0 66 86 96 135 46
34 -33 32 -70 -5 -105 -21 -19 -30 -38 -30 -58 0 -50 21 -62 111 -62 l79 0 0
-71 0 -71 -31 26 c-40 34 -72 41 -119 27 -57 -17 -90 -61 -90 -120 0 -110 118
-167 210 -101 l30 21 0 -70 0 -71 -147 0 c-152 0 -180 -6 -170 -34 6 -14 37
-16 262 -16 220 0 255 -2 255 -15 0 -8 -4 -15 -10 -15 -16 0 -40 -57 -40 -95
0 -79 63 -133 143 -122 91 12 137 121 84 199 -14 20 -23 39 -19 42 3 3 45 6
94 6 l88 0 0 340 c0 242 3 340 11 340 6 0 24 -11 41 -25 58 -49 146 -27 183
45 62 119 -78 238 -187 159 -15 -10 -32 -19 -37 -19 -6 0 -11 39 -13 93 l-3
92 -39 3 c-51 4 -86 -5 -86 -22 0 -17 22 -26 60 -26 l29 0 3 -92 3 -93 39 -3
c29 -3 44 2 62 19 52 49 134 17 134 -51 0 -72 -80 -105 -134 -55 -19 18 -38
25 -66 25 l-39 0 -3 -92 -3 -93 -92 -3 -93 -3 0 -45 c0 -31 7 -54 20 -71 24
-31 26 -70 4 -101 -20 -28 -93 -31 -117 -4 -32 35 -31 67 3 105 25 29 31 43
28 74 l-3 38 -92 3 -93 3 0 69 c0 39 3 70 7 70 4 0 17 -10 29 -21 34 -32 104
-37 147 -10 42 25 71 89 62 133 -16 72 -101 121 -170 98 -18 -6 -39 -18 -45
-26 -23 -27 -30 -14 -30 56 l0 69 158 3 c149 3 157 4 157 23 0 19 -8 20 -257
23 -142 1 -258 6 -258 11 0 4 9 16 20 26 25 22 41 80 33 114 -12 51 -76 101
-130 101 -15 0 -42 -9 -60 -20z m100 -41 c24 -11 47 -47 47 -73 0 -7 -13 -32
-30 -54 -32 -44 -38 -80 -18 -100 7 -7 44 -12 95 -12 l83 0 0 -89 c0 -97 3
-101 62 -101 18 0 42 10 60 25 16 14 36 25 44 25 24 0 71 -28 78 -45 33 -86
-68 -155 -129 -89 -19 21 -31 25 -67 22 l-43 -3 -3 -92 -3 -93 -69 0 c-39 0
-70 4 -70 8 0 5 9 17 20 27 80 72 15 215 -97 215 -64 0 -123 -66 -123 -138 0
-16 11 -46 25 -66 14 -20 25 -39 25 -41 0 -3 -31 -5 -70 -5 l-69 0 -3 220 -3
220 86 0 c53 0 90 5 97 12 20 20 14 67 -13 102 -32 42 -32 80 0 111 26 27 51
31 88 14z m357 -764 c-15 -16 -24 -41 -28 -73 -8 -87 41 -142 128 -142 92 0
150 112 101 195 -11 20 -21 38 -21 41 0 2 32 4 70 4 l70 0 0 -215 0 -215 -79
0 c-44 0 -86 -3 -95 -6 -23 -9 -21 -82 4 -114 42 -53 9 -130 -55 -130 -33 0
-69 27 -80 59 -7 22 14 70 39 90 9 8 16 29 16 47 0 43 -24 54 -121 54 l-69 0
0 85 c0 73 -3 86 -19 95 -33 17 -74 11 -100 -15 -40 -43 -111 -26 -125 30 -9
37 17 93 49 101 31 8 73 -9 93 -37 14 -21 52 -25 83 -9 16 9 19 22 19 95 l0
85 72 0 71 0 -23 -25z"/>
</g>
</svg>
