<svg xmlns="http://www.w3.org/2000/svg" version="1.0" preserveAspectRatio="xMidYMid meet" viewBox="164.59 203.31 422.95 345.69">

<g transform="translate(0.000000,752.000000) scale(0.100000,-0.100000)" fill="#000000" stroke="none">
<path d="M4067 5480 c-362 -65 -645 -319 -753 -676 -25 -80 -28 -105 -28 -249 -1 -138 2 -171 22 -238 100 -348 345 -591 687 -683 108 -29 351 -27 465 4 358 97 635 402 691 762 16 105 6 305 -21 400 -50 177 -175 368 -314 478 -119 95 -214 143 -361 184 -80 22 -309 33 -388 18z m198 -355 c15 -14 25 -36 25 -52 0 -24 7 -31 48 -50 96 -44 158 -132 169 -238 7 -67 -9 -110 -45 -123 -30 -10 -65 -1 -78 20 -5 7 -11 44 -15 81 -5 52 -12 74 -30 93 -70 75 -167 72 -233 -6 -21 -26 -26 -42 -26 -86 0 -49 4 -59 38 -95 34 -37 44 -41 121 -55 140 -24 213 -84 247 -203 39 -130 -26 -270 -153 -332 -36 -18 -43 -25 -43 -50 0 -35 -39 -79 -70 -79 -31 0 -70 44 -70 78 0 25 -6 32 -43 46 -84 32 -155 118 -172 206 -14 75 69 121 114 64 12 -15 21 -33 21 -42 0 -28 41 -80 77 -97 58 -28 126 -16 171 28 30 30 36 44 40 91 3 43 0 62 -16 88 -28 44 -49 56 -128 68 -121 20 -190 63 -240 152 -25 46 -29 63 -29 133 0 63 5 89 23 122 30 57 80 105 136 132 39 20 46 27 46 52 0 35 39 79 70 79 12 0 32 -11 45 -25z"/>
<path d="M2066 3771 c-24 -26 -428 -1536 -420 -1568 4 -13 14 -28 24 -33 12 -6 208 -10 504 -10 579 0 526 -14 526 139 l0 99 108 7 107 7 607 -191 c334 -105 616 -191 626 -191 11 0 379 185 818 411 884 454 867 444 899 554 44 151 -56 303 -213 322 -47 5 -166 -22 -739 -171 l-172 -44 -17 55 c-23 72 -87 143 -156 173 -52 22 -57 23 -378 18 -195 -3 -335 -1 -350 4 -14 6 -167 61 -340 124 l-314 114 -243 0 -243 0 0 80 c0 127 18 120 -328 120 -271 0 -290 -1 -306 -19z m1424 -437 l345 -125 337 3 c329 3 337 3 365 -18 86 -64 86 -183 0 -248 -28 -20 -41 -21 -455 -26 l-427 -5 -67 -33 c-108 -53 -178 -159 -178 -271 0 -59 22 -84 71 -79 37 3 50 22 68 101 13 57 40 96 84 123 30 18 59 19 457 24 420 5 426 5 477 29 47 21 119 86 148 133 12 20 856 238 918 238 56 0 107 -52 107 -108 0 -83 21 -70 -822 -503 l-777 -400 -591 186 -591 185 -130 0 -129 0 0 460 0 460 223 0 222 0 345 -126z"/>
</g>
</svg>