<?xml version="1.0" encoding="utf-8"?>
<!-- Generator: Adobe Illustrator 25.2.0, SVG Export Plug-In . SVG Version: 6.00 Build 0)  -->
<svg version="1.1" id="Layer_1" xmlns="http://www.w3.org/2000/svg" xmlns:xlink="http://www.w3.org/1999/xlink" x="0px" y="0px"
	 viewBox="0 0 213.7 91.3" style="enable-background:new 0 0 213.7 91.3;" xml:space="preserve">
<style type="text/css">
	.st0{fill:#525D29;}
	.st1{fill:#DECF57;}
	.st2{enable-background:new    ;}
	.st3{fill:none;stroke:#000000;stroke-miterlimit:10;}
	.st4{fill:#221F20;}
</style>
<g id="Layer_2_1_">
	<g id="Layer_1-2">
		<path class="st0" d="M58.1,31.7c-3.5,0-7,0.8-10.1,2.3c-3.2,1.5-6,3.8-8.2,6.5c0.2-0.8,0.5-1.6,1-2.3c2.2-4.6,5.8-8.4,10.2-10.9
			c3-1.6,6.3-2.5,9.7-2.7c4.6-0.4,9.3,0,13.8,1.1c1.2,0.3,1.3,0.5,0.4,1.4c-4.2,4.5-9.3,7.9-15.1,10.1c-4.3,1.6-9,2.3-13.6,1.9
			c-0.2,0-0.6,0.1-0.7-0.2s0.2-0.4,0.4-0.6c3.1-3.1,6.9-5.3,11.2-6.2C57.4,32,57.8,31.9,58.1,31.7L58.1,31.7z"/>
		<path class="st0" d="M43.7,16.8c-5.1,5.6-6.9,12.1-5.9,19.6c-1-2.1-1.7-4.3-2.2-6.5c-1.8-8,0.3-15.1,5.6-21.3
			c2.6-3.1,5.7-5.8,9.1-8.1c1-0.6,1.2-0.6,1.2,0.5c0.5,11.1-1.9,21.2-10.2,29.3c-0.2,0.2-0.5,0.7-0.8,0.5s-0.2-0.6-0.2-1
			c-0.2-4.5,1-8.9,3.3-12.8C43.6,17,43.6,16.9,43.7,16.8L43.7,16.8z"/>
		<path class="st0" d="M35.4,40c-4.8-5.3-10.5-8.2-17.5-8.2c2.3,0.6,4.4,1.5,6.5,2.5c1.9,1.1,3.6,2.4,5.1,3.9
			c0.2,0.2,0.5,0.3,0.4,0.6S29.4,39,29.1,39c-9,0.6-16.9-2.3-23.9-7.8c-1.8-1.3-3.4-2.8-4.9-4.5c-0.4-0.5-0.4-0.8,0.3-1
			c6.4-1.5,12.9-2,19.3-0.3c5.8,1.6,10,5.2,13.3,10.1c0.8,1.1,1.4,2.3,2,3.5C35.4,39.3,35.5,39.7,35.4,40L35.4,40z"/>
		<path class="st1" d="M47.8,49.7c1.5,0.4,2.9,0.8,4.3,1.4c4.4,1.5,8.5,3.7,12.2,6.5c3.8,3,6.9,6.5,8.3,11.4
			c2.6,9.5-3,19.2-12.5,21.8c-1.8,0.5-3.8,0.7-5.7,0.6c-1.4,0-2.7-0.3-4-0.7c-0.2-0.1-0.5-0.1-0.5-0.3s0.2-0.2,0.4-0.4
			c0.8-0.8,1.7-1.6,2.5-2.4c0.4-0.4,0.9-0.7,1.5-0.6c7.7,0.4,14.3-5.5,14.8-13.2c0.4-5.8-2.3-10-6.5-13.5c-3.3-2.6-7-4.6-10.9-5.9
			c-0.5-0.2-1-0.5-1.3-1c-0.8-1-1.6-2-2.4-3C47.9,50.2,47.7,50,47.8,49.7z"/>
		<path class="st1" d="M53,56.9c0.4-0.2,0.7,0,0.9,0.1c3.6,1.4,6.9,3.6,9.7,6.4c4.6,4.8,4.4,12.4-0.4,17c-0.7,0.7-1.5,1.3-2.4,1.8
			c-1.2,0.7-2.5,1.2-3.9,1.4c-0.3,0-0.8,0.2-0.9-0.2c-0.1-0.4,0.1-0.8,0.5-1c0.6-0.3,1.3-0.6,1.9-1c5.2-3,7.2-9.5,4.8-14.9
			c-1.2-3-3.6-5.1-6.3-7c-1.1-0.8-2.2-1.5-3.4-2C53.3,57.4,53,57.2,53,56.9L53,56.9z"/>
		<path class="st1" d="M52.6,62c-3.5-6.5-8.1-12.4-13.7-17.2c-0.4-0.5-1.2-0.6-1.7-0.2c-0.1,0.1-0.2,0.1-0.2,0.2
			c-3.3,3-6.3,6.4-9,9.9c-2.2,2.9-4.1,6.1-5.6,9.4c-1.4,3.1-2.2,6.4-2.2,9.8c0.1,3.5,1.2,6.9,3.2,9.7c3.2,4.7,8.5,7.6,14.1,7.7
			c4.2,0,8.3-1.4,11.6-4.1c4.3-3.4,6.8-8.7,6.5-14.3C55.4,69.2,54.4,65.4,52.6,62z M39.8,86.5c-5.1,0.8-10.2-1.3-13.2-5.5
			c-2.7-3.4-3.6-7.8-2.5-12c0.7-3,1.9-5.8,3.5-8.4c2.6-4.1,5.7-7.9,9.3-11.1c1-0.9,1-0.9,2,0c2.8,2.5,5.2,5.2,7.4,8.2
			c2.9,3.7,4.8,8,5.7,12.6c0.1,0.7,0.1,1.4,0.1,2.2C52.2,79.6,46.9,85.6,39.8,86.5z"/>
		<path class="st1" d="M30.1,80.2c0.8,0.4,1.6,0.7,2.4,1c4.3,1.2,8.3,0.7,11.7-2.4c3.7-3.3,4.7-7.6,3.6-12.4
			c-1.1-4-3.1-7.6-5.8-10.6c-0.4-0.4-0.8-0.9-1-1.4c0.6,0.5,1.1,1,1.6,1.5c2.8,3.1,5,6.6,6.6,10.4c1.4,3.7,1.6,7.4-0.3,11
			C47,81,43.2,83.5,39,83.6c-3.2,0.2-6.3-0.8-8.7-3C30.1,80.5,30,80.3,30.1,80.2L30.1,80.2z"/>
		<g>
			<g>
				<g class="st2">
					<path d="M89.6,49.4c2.5,0,4.6,0.9,6.5,2.8c1.8,1.9,2.7,4.2,2.7,7.1c0,2.9-0.9,5.3-2.8,7.3c-1.8,1.9-4.1,2.9-6.7,2.9
						c-2.6,0-4.9-0.9-6.7-2.8c-1.8-1.9-2.7-4.3-2.7-7.3c0-3,1-5.5,3.1-7.4C84.9,50.3,87.1,49.4,89.6,49.4z M89.3,50.5
						c-1.7,0-3.1,0.6-4.1,1.9c-1.3,1.6-1.9,3.9-1.9,7c0,3.1,0.7,5.5,2,7.2c1,1.3,2.4,1.9,4.1,1.9c1.8,0,3.3-0.7,4.5-2.1
						c1.2-1.4,1.8-3.6,1.8-6.6c0-3.3-0.6-5.7-1.9-7.3C92.6,51.1,91.1,50.5,89.3,50.5z"/>
				</g>
				<g class="st2">
					<path class="st3" d="M89.6,49.4c2.5,0,4.6,0.9,6.5,2.8c1.8,1.9,2.7,4.2,2.7,7.1c0,2.9-0.9,5.3-2.8,7.3
						c-1.8,1.9-4.1,2.9-6.7,2.9c-2.6,0-4.9-0.9-6.7-2.8c-1.8-1.9-2.7-4.3-2.7-7.3c0-3,1-5.5,3.1-7.4C84.9,50.3,87.1,49.4,89.6,49.4z
						 M89.3,50.5c-1.7,0-3.1,0.6-4.1,1.9c-1.3,1.6-1.9,3.9-1.9,7c0,3.1,0.7,5.5,2,7.2c1,1.3,2.4,1.9,4.1,1.9c1.8,0,3.3-0.7,4.5-2.1
						c1.2-1.4,1.8-3.6,1.8-6.6c0-3.3-0.6-5.7-1.9-7.3C92.6,51.1,91.1,50.5,89.3,50.5z"/>
				</g>
				<g class="st2">
					<path d="M116.4,63.7l0.5,0.1l-1.6,5.2h-14.8v-0.5h0.7c0.8,0,1.4-0.3,1.7-0.8c0.2-0.3,0.3-1,0.3-2.1V53.3c0-1.2-0.1-1.9-0.4-2.2
						c-0.4-0.4-0.9-0.6-1.6-0.6h-0.7v-0.5h8.7v0.5c-1,0-1.7,0.1-2.1,0.3c-0.4,0.2-0.7,0.4-0.8,0.8c-0.2,0.3-0.2,1-0.2,2.2v12
						c0,0.8,0.1,1.3,0.2,1.6c0.1,0.2,0.3,0.3,0.5,0.4c0.2,0.1,1,0.1,2.2,0.1h1.4c1.5,0,2.5-0.1,3.1-0.3s1.1-0.6,1.6-1.2
						C115.5,65.8,115.9,64.9,116.4,63.7z"/>
				</g>
				<g class="st2">
					<path class="st3" d="M116.4,63.7l0.5,0.1l-1.6,5.2h-14.8v-0.5h0.7c0.8,0,1.4-0.3,1.7-0.8c0.2-0.3,0.3-1,0.3-2.1V53.3
						c0-1.2-0.1-1.9-0.4-2.2c-0.4-0.4-0.9-0.6-1.6-0.6h-0.7v-0.5h8.7v0.5c-1,0-1.7,0.1-2.1,0.3c-0.4,0.2-0.7,0.4-0.8,0.8
						c-0.2,0.3-0.2,1-0.2,2.2v12c0,0.8,0.1,1.3,0.2,1.6c0.1,0.2,0.3,0.3,0.5,0.4c0.2,0.1,1,0.1,2.2,0.1h1.4c1.5,0,2.5-0.1,3.1-0.3
						s1.1-0.6,1.6-1.2C115.5,65.8,115.9,64.9,116.4,63.7z"/>
				</g>
				<g class="st2">
					<path d="M126.2,68.5V69H118v-0.5h0.7c0.8,0,1.4-0.2,1.7-0.7c0.2-0.3,0.3-1,0.3-2.2V53.3c0-1-0.1-1.6-0.2-1.9
						c-0.1-0.2-0.3-0.4-0.6-0.6c-0.4-0.2-0.8-0.3-1.3-0.3H118v-0.5h8.2v0.5h-0.7c-0.8,0-1.4,0.2-1.7,0.7c-0.2,0.3-0.4,1-0.4,2.2
						v12.4c0,1,0.1,1.6,0.2,1.9c0.1,0.2,0.3,0.4,0.6,0.6c0.4,0.2,0.8,0.3,1.3,0.3H126.2z"/>
				</g>
				<g class="st2">
					<path class="st3" d="M126.2,68.5V69H118v-0.5h0.7c0.8,0,1.4-0.2,1.7-0.7c0.2-0.3,0.3-1,0.3-2.2V53.3c0-1-0.1-1.6-0.2-1.9
						c-0.1-0.2-0.3-0.4-0.6-0.6c-0.4-0.2-0.8-0.3-1.3-0.3H118v-0.5h8.2v0.5h-0.7c-0.8,0-1.4,0.2-1.7,0.7c-0.2,0.3-0.4,1-0.4,2.2
						v12.4c0,1,0.1,1.6,0.2,1.9c0.1,0.2,0.3,0.4,0.6,0.6c0.4,0.2,0.8,0.3,1.3,0.3H126.2z"/>
				</g>
				<g class="st2">
					<path d="M147.1,49.9v0.5c-0.7,0.1-1.2,0.3-1.5,0.7c-0.5,0.5-0.9,1.2-1.3,2.1l-6.7,16.3H137l-7.2-16.5c-0.4-0.8-0.6-1.4-0.8-1.6
						c-0.2-0.3-0.5-0.5-0.9-0.7c-0.3-0.2-0.8-0.3-1.4-0.3v-0.5h7.8v0.5c-0.9,0.1-1.5,0.2-1.7,0.5s-0.4,0.5-0.4,0.8
						c0,0.5,0.2,1.2,0.6,2.2l4.9,11.2l4.5-11.1c0.4-1.1,0.7-1.9,0.7-2.3c0-0.3-0.1-0.5-0.4-0.8c-0.3-0.2-0.7-0.4-1.4-0.5
						c0,0-0.1,0-0.2,0v-0.5H147.1z"/>
				</g>
				<g class="st2">
					<path class="st3" d="M147.1,49.9v0.5c-0.7,0.1-1.2,0.3-1.5,0.7c-0.5,0.5-0.9,1.2-1.3,2.1l-6.7,16.3H137l-7.2-16.5
						c-0.4-0.8-0.6-1.4-0.8-1.6c-0.2-0.3-0.5-0.5-0.9-0.7c-0.3-0.2-0.8-0.3-1.4-0.3v-0.5h7.8v0.5c-0.9,0.1-1.5,0.2-1.7,0.5
						s-0.4,0.5-0.4,0.8c0,0.5,0.2,1.2,0.6,2.2l4.9,11.2l4.5-11.1c0.4-1.1,0.7-1.9,0.7-2.3c0-0.3-0.1-0.5-0.4-0.8
						c-0.3-0.2-0.7-0.4-1.4-0.5c0,0-0.1,0-0.2,0v-0.5H147.1z"/>
				</g>
				<g class="st2">
					<path d="M153.4,50.9v7.6h4.2c1.1,0,1.8-0.2,2.2-0.5c0.5-0.4,0.8-1.2,0.8-2.3h0.5v6.7h-0.5c-0.1-0.9-0.3-1.5-0.4-1.8
						c-0.2-0.3-0.4-0.6-0.8-0.8c-0.4-0.2-1-0.3-1.8-0.3h-4.2v6.3c0,0.8,0,1.4,0.1,1.5s0.2,0.3,0.4,0.4c0.2,0.1,0.5,0.2,1.1,0.2h3.3
						c1.1,0,1.9-0.1,2.4-0.2c0.5-0.2,1-0.4,1.4-0.9c0.6-0.6,1.2-1.5,1.8-2.6h0.6l-1.7,4.8h-14.8v-0.5h0.7c0.5,0,0.9-0.1,1.3-0.3
						c0.3-0.2,0.5-0.4,0.6-0.7s0.2-0.9,0.2-1.9V53.2c0-1.2-0.1-2-0.4-2.2c-0.3-0.4-0.9-0.6-1.7-0.6h-0.7v-0.5h14.8l0.2,4.2h-0.6
						c-0.2-1-0.4-1.7-0.7-2.1s-0.6-0.7-1.1-0.9c-0.4-0.1-1-0.2-2-0.2H153.4z"/>
				</g>
				<g class="st2">
					<path class="st3" d="M153.4,50.9v7.6h4.2c1.1,0,1.8-0.2,2.2-0.5c0.5-0.4,0.8-1.2,0.8-2.3h0.5v6.7h-0.5
						c-0.1-0.9-0.3-1.5-0.4-1.8c-0.2-0.3-0.4-0.6-0.8-0.8c-0.4-0.2-1-0.3-1.8-0.3h-4.2v6.3c0,0.8,0,1.4,0.1,1.5s0.2,0.3,0.4,0.4
						c0.2,0.1,0.5,0.2,1.1,0.2h3.3c1.1,0,1.9-0.1,2.4-0.2c0.5-0.2,1-0.4,1.4-0.9c0.6-0.6,1.2-1.5,1.8-2.6h0.6l-1.7,4.8h-14.8v-0.5
						h0.7c0.5,0,0.9-0.1,1.3-0.3c0.3-0.2,0.5-0.4,0.6-0.7s0.2-0.9,0.2-1.9V53.2c0-1.2-0.1-2-0.4-2.2c-0.3-0.4-0.9-0.6-1.7-0.6h-0.7
						v-0.5h14.8l0.2,4.2h-0.6c-0.2-1-0.4-1.7-0.7-2.1s-0.6-0.7-1.1-0.9c-0.4-0.1-1-0.2-2-0.2H153.4z"/>
				</g>
			</g>
			<g class="st2">
				<path class="st4" d="M90.3,76.9v0.2c-0.3,0.1-0.6,0.2-0.7,0.3c-0.2,0.2-0.4,0.5-0.6,1L85.9,86h-0.2l-3.3-7.7
					c-0.2-0.4-0.3-0.6-0.4-0.7c-0.1-0.1-0.2-0.2-0.4-0.3c-0.2-0.1-0.4-0.1-0.6-0.1v-0.2h3.6v0.2c-0.4,0-0.7,0.1-0.8,0.2
					c-0.1,0.1-0.2,0.2-0.2,0.4c0,0.2,0.1,0.6,0.3,1l2.3,5.2l2.1-5.2c0.2-0.5,0.3-0.9,0.3-1.1c0-0.1-0.1-0.2-0.2-0.4
					c-0.1-0.1-0.3-0.2-0.6-0.2c0,0-0.1,0-0.1,0v-0.2H90.3z"/>
				<path class="st4" d="M93.3,77.4v3.5h2c0.5,0,0.8-0.1,1-0.2c0.2-0.2,0.4-0.6,0.4-1.1h0.2v3.1h-0.2c-0.1-0.4-0.1-0.7-0.2-0.8
					c-0.1-0.2-0.2-0.3-0.4-0.4c-0.2-0.1-0.5-0.1-0.8-0.1h-2v2.9c0,0.4,0,0.6,0.1,0.7c0,0.1,0.1,0.2,0.2,0.2c0.1,0.1,0.3,0.1,0.5,0.1
					h1.5c0.5,0,0.9,0,1.1-0.1s0.4-0.2,0.7-0.4c0.3-0.3,0.6-0.7,0.8-1.2h0.3l-0.8,2.2h-6.9v-0.2h0.3c0.2,0,0.4,0,0.6-0.2
					c0.1-0.1,0.2-0.2,0.3-0.3C92,85,92,84.7,92,84.3v-5.8c0-0.6-0.1-0.9-0.2-1c-0.2-0.2-0.4-0.3-0.8-0.3h-0.3v-0.2h6.9l0.1,2h-0.3
					c-0.1-0.5-0.2-0.8-0.3-1c-0.1-0.2-0.3-0.3-0.5-0.4c-0.2-0.1-0.5-0.1-0.9-0.1H93.3z"/>
				<path class="st4" d="M98.6,76.9h2.4l5.5,6.7v-5.2c0-0.5-0.1-0.9-0.2-1c-0.2-0.2-0.4-0.3-0.8-0.3h-0.3v-0.2h3.1v0.2H108
					c-0.4,0-0.6,0.1-0.8,0.3c-0.1,0.1-0.1,0.5-0.1,1V86h-0.2l-5.9-7.2v5.5c0,0.5,0.1,0.9,0.2,1c0.2,0.2,0.4,0.3,0.8,0.3h0.3v0.2H99
					v-0.2h0.3c0.4,0,0.7-0.1,0.8-0.3c0.1-0.1,0.1-0.5,0.1-1v-6.2c-0.3-0.3-0.5-0.5-0.6-0.6s-0.3-0.2-0.6-0.3c-0.1,0-0.3-0.1-0.6-0.1
					V76.9z"/>
				<path class="st4" d="M116.3,76.9l0.1,2.1h-0.3c0-0.4-0.1-0.6-0.2-0.8c-0.1-0.3-0.3-0.4-0.5-0.6c-0.2-0.1-0.5-0.2-0.9-0.2h-1.3
					v6.8c0,0.5,0.1,0.9,0.2,1c0.2,0.2,0.4,0.3,0.8,0.3h0.3v0.2h-3.8v-0.2h0.3c0.4,0,0.6-0.1,0.8-0.3c0.1-0.1,0.1-0.5,0.1-1v-6.8
					h-1.1c-0.4,0-0.7,0-0.9,0.1c-0.2,0.1-0.4,0.2-0.6,0.5c-0.2,0.2-0.3,0.6-0.3,1h-0.2l0.1-2.1H116.3z"/>
				<path class="st4" d="M123.2,77.1v-0.2h3.2v0.2H126c-0.4,0-0.6,0.1-0.8,0.4c-0.1,0.1-0.1,0.5-0.1,0.9v3.6c0,0.9-0.1,1.6-0.3,2.1
					s-0.5,0.9-1,1.3s-1.2,0.5-2.1,0.5c-1,0-1.7-0.2-2.2-0.5c-0.5-0.3-0.9-0.8-1.1-1.4c-0.1-0.4-0.2-1.1-0.2-2.2v-3.5
					c0-0.5-0.1-0.9-0.2-1.1c-0.2-0.2-0.4-0.3-0.7-0.3h-0.3v-0.2h3.9v0.2h-0.3c-0.4,0-0.6,0.1-0.8,0.3c-0.1,0.2-0.2,0.5-0.2,1v3.9
					c0,0.3,0,0.7,0.1,1.2c0.1,0.4,0.2,0.8,0.3,1c0.2,0.2,0.4,0.5,0.7,0.6c0.3,0.2,0.7,0.2,1.2,0.2c0.6,0,1.1-0.1,1.6-0.4
					c0.5-0.3,0.8-0.6,0.9-1s0.3-1.1,0.3-2v-3.6c0-0.6-0.1-0.9-0.2-1c-0.2-0.2-0.4-0.3-0.8-0.3H123.2z"/>
				<path class="st4" d="M135.6,85.8h-2.4l-3-4.2c-0.2,0-0.4,0-0.5,0c-0.1,0-0.1,0-0.2,0c-0.1,0-0.1,0-0.2,0v2.6
					c0,0.6,0.1,0.9,0.2,1c0.2,0.2,0.4,0.3,0.8,0.3h0.3v0.2h-3.8v-0.2h0.3c0.4,0,0.6-0.1,0.8-0.4c0.1-0.1,0.1-0.5,0.1-1v-5.8
					c0-0.6-0.1-0.9-0.2-1c-0.2-0.2-0.4-0.3-0.8-0.3h-0.3v-0.2h3.3c0.9,0,1.6,0.1,2.1,0.2c0.5,0.1,0.8,0.4,1.1,0.8
					c0.3,0.4,0.5,0.8,0.5,1.3c0,0.5-0.2,1-0.5,1.4c-0.4,0.4-0.9,0.7-1.7,0.9l1.8,2.6c0.4,0.6,0.8,1,1.1,1.2s0.7,0.3,1.2,0.4V85.8z
					 M129.2,81.2c0.1,0,0.2,0,0.2,0c0.1,0,0.1,0,0.2,0c0.9,0,1.5-0.2,1.9-0.6c0.4-0.4,0.6-0.8,0.6-1.4c0-0.6-0.2-1-0.5-1.4
					c-0.3-0.3-0.8-0.5-1.4-0.5c-0.3,0-0.6,0-1,0.1V81.2z"/>
				<path class="st4" d="M138.3,77.4v3.5h2c0.5,0,0.8-0.1,1-0.2c0.2-0.2,0.4-0.6,0.4-1.1h0.2v3.1h-0.2c-0.1-0.4-0.1-0.7-0.2-0.8
					c-0.1-0.2-0.2-0.3-0.4-0.4s-0.5-0.1-0.8-0.1h-2v2.9c0,0.4,0,0.6,0.1,0.7c0,0.1,0.1,0.2,0.2,0.2c0.1,0.1,0.3,0.1,0.5,0.1h1.5
					c0.5,0,0.9,0,1.1-0.1s0.4-0.2,0.7-0.4c0.3-0.3,0.6-0.7,0.8-1.2h0.3l-0.8,2.2h-6.9v-0.2h0.3c0.2,0,0.4,0,0.6-0.2
					c0.1-0.1,0.2-0.2,0.3-0.3c0-0.1,0.1-0.4,0.1-0.9v-5.8c0-0.6-0.1-0.9-0.2-1c-0.2-0.2-0.4-0.3-0.8-0.3h-0.3v-0.2h6.9l0.1,2h-0.3
					c-0.1-0.5-0.2-0.8-0.3-1c-0.1-0.2-0.3-0.3-0.5-0.4c-0.2-0.1-0.5-0.1-0.9-0.1H138.3z"/>
			</g>
			<g class="st2">
				<path class="st4" d="M149.5,81.6v2.6c0,0.6,0.1,0.9,0.2,1c0.2,0.2,0.4,0.3,0.8,0.3h0.3v0.2h-3.8v-0.2h0.3c0.4,0,0.6-0.1,0.8-0.4
					c0.1-0.1,0.1-0.5,0.1-1v-5.8c0-0.6-0.1-0.9-0.2-1c-0.2-0.2-0.4-0.3-0.8-0.3h-0.3v-0.2h3.3c0.8,0,1.4,0.1,1.9,0.2
					c0.5,0.2,0.8,0.4,1.2,0.8s0.5,0.9,0.5,1.4c0,0.7-0.2,1.3-0.7,1.8c-0.5,0.5-1.2,0.7-2,0.7c-0.2,0-0.4,0-0.7,0
					C150,81.8,149.7,81.7,149.5,81.6z M149.5,81.3c0.2,0,0.4,0.1,0.6,0.1c0.2,0,0.3,0,0.5,0c0.5,0,0.9-0.2,1.2-0.5
					c0.3-0.4,0.5-0.8,0.5-1.4c0-0.4-0.1-0.7-0.2-1.1c-0.2-0.3-0.4-0.6-0.7-0.7s-0.6-0.2-1-0.2c-0.2,0-0.5,0-0.9,0.1V81.3z"/>
			</g>
			<g class="st2">
				<path class="st4" d="M158.9,82.8h-3.5l-0.6,1.4c-0.1,0.3-0.2,0.6-0.2,0.8c0,0.1,0.1,0.3,0.2,0.4c0.1,0.1,0.4,0.2,0.8,0.2v0.2
					h-2.8v-0.2c0.4-0.1,0.6-0.2,0.7-0.3c0.2-0.2,0.5-0.6,0.7-1.3l3.1-7.4h0.2l3.1,7.4c0.2,0.6,0.5,1,0.7,1.2
					c0.2,0.2,0.5,0.3,0.9,0.3v0.2h-3.5v-0.2c0.4,0,0.6-0.1,0.7-0.2c0.1-0.1,0.2-0.2,0.2-0.4c0-0.2-0.1-0.5-0.3-0.9L158.9,82.8z
					 M158.7,82.4l-1.5-3.6l-1.6,3.6H158.7z"/>
			</g>
			<g class="st2">
				<path class="st4" d="M171.5,85.8h-2.4l-3-4.2c-0.2,0-0.4,0-0.5,0c-0.1,0-0.1,0-0.2,0s-0.1,0-0.2,0v2.6c0,0.6,0.1,0.9,0.2,1
					c0.2,0.2,0.4,0.3,0.8,0.3h0.3v0.2h-3.8v-0.2h0.3c0.4,0,0.6-0.1,0.8-0.4c0.1-0.1,0.1-0.5,0.1-1v-5.8c0-0.6-0.1-0.9-0.2-1
					c-0.2-0.2-0.4-0.3-0.8-0.3h-0.3v-0.2h3.3c0.9,0,1.6,0.1,2.1,0.2c0.5,0.1,0.8,0.4,1.1,0.8c0.3,0.4,0.5,0.8,0.5,1.3
					c0,0.5-0.2,1-0.5,1.4c-0.4,0.4-0.9,0.7-1.7,0.9l1.8,2.6c0.4,0.6,0.8,1,1.1,1.2s0.7,0.3,1.2,0.4V85.8z M165.2,81.2
					c0.1,0,0.2,0,0.2,0s0.1,0,0.2,0c0.9,0,1.5-0.2,1.9-0.6c0.4-0.4,0.6-0.8,0.6-1.4c0-0.6-0.2-1-0.5-1.4c-0.3-0.3-0.8-0.5-1.4-0.5
					c-0.3,0-0.6,0-1,0.1V81.2z"/>
			</g>
			<g class="st2">
				<path class="st4" d="M178.5,76.9l0.1,2.1h-0.2c0-0.4-0.1-0.6-0.2-0.8c-0.1-0.3-0.3-0.4-0.5-0.6c-0.2-0.1-0.5-0.2-0.9-0.2h-1.3
					v6.8c0,0.5,0.1,0.9,0.2,1c0.2,0.2,0.4,0.3,0.8,0.3h0.3v0.2h-3.8v-0.2h0.3c0.4,0,0.6-0.1,0.8-0.3c0.1-0.1,0.1-0.5,0.1-1v-6.8
					h-1.1c-0.4,0-0.7,0-0.9,0.1c-0.2,0.1-0.4,0.2-0.6,0.5c-0.2,0.2-0.3,0.6-0.3,1h-0.3l0.1-2.1H178.5z"/>
				<path class="st4" d="M178.7,76.9h2.4l5.5,6.7v-5.2c0-0.5-0.1-0.9-0.2-1c-0.2-0.2-0.4-0.3-0.8-0.3h-0.3v-0.2h3.1v0.2h-0.3
					c-0.4,0-0.6,0.1-0.8,0.3c-0.1,0.1-0.1,0.5-0.1,1V86H187l-5.9-7.2v5.5c0,0.5,0.1,0.9,0.2,1c0.2,0.2,0.4,0.3,0.8,0.3h0.3v0.2h-3.1
					v-0.2h0.3c0.4,0,0.7-0.1,0.8-0.3c0.1-0.1,0.1-0.5,0.1-1v-6.2c-0.3-0.3-0.5-0.5-0.6-0.6s-0.3-0.2-0.6-0.3c-0.1,0-0.3-0.1-0.6-0.1
					V76.9z"/>
				<path class="st4" d="M191.5,77.4v3.5h2c0.5,0,0.8-0.1,1-0.2c0.2-0.2,0.4-0.6,0.4-1.1h0.2v3.1h-0.2c-0.1-0.4-0.1-0.7-0.2-0.8
					c-0.1-0.2-0.2-0.3-0.4-0.4s-0.5-0.1-0.8-0.1h-2v2.9c0,0.4,0,0.6,0.1,0.7c0,0.1,0.1,0.2,0.2,0.2c0.1,0.1,0.3,0.1,0.5,0.1h1.5
					c0.5,0,0.9,0,1.1-0.1s0.4-0.2,0.7-0.4c0.3-0.3,0.6-0.7,0.8-1.2h0.3l-0.8,2.2h-6.9v-0.2h0.3c0.2,0,0.4,0,0.6-0.2
					c0.1-0.1,0.2-0.2,0.3-0.3c0-0.1,0.1-0.4,0.1-0.9v-5.8c0-0.6-0.1-0.9-0.2-1c-0.2-0.2-0.4-0.3-0.8-0.3h-0.3v-0.2h6.9l0.1,2h-0.3
					c-0.1-0.5-0.2-0.8-0.3-1c-0.1-0.2-0.3-0.3-0.5-0.4c-0.2-0.1-0.5-0.1-0.9-0.1H191.5z"/>
				<path class="st4" d="M206,85.8h-2.4l-3-4.2c-0.2,0-0.4,0-0.5,0c-0.1,0-0.1,0-0.2,0s-0.1,0-0.2,0v2.6c0,0.6,0.1,0.9,0.2,1
					c0.2,0.2,0.4,0.3,0.8,0.3h0.3v0.2h-3.8v-0.2h0.3c0.4,0,0.6-0.1,0.8-0.4c0.1-0.1,0.1-0.5,0.1-1v-5.8c0-0.6-0.1-0.9-0.2-1
					c-0.2-0.2-0.4-0.3-0.8-0.3h-0.3v-0.2h3.3c0.9,0,1.6,0.1,2.1,0.2c0.5,0.1,0.8,0.4,1.1,0.8c0.3,0.4,0.5,0.8,0.5,1.3
					c0,0.5-0.2,1-0.5,1.4c-0.4,0.4-0.9,0.7-1.7,0.9l1.8,2.6c0.4,0.6,0.8,1,1.1,1.2s0.7,0.3,1.2,0.4V85.8z M199.7,81.2
					c0.1,0,0.2,0,0.2,0s0.1,0,0.2,0c0.9,0,1.5-0.2,1.9-0.6c0.4-0.4,0.6-0.8,0.6-1.4c0-0.6-0.2-1-0.5-1.4c-0.3-0.3-0.8-0.5-1.4-0.5
					c-0.3,0-0.6,0-1,0.1V81.2z"/>
				<path class="st4" d="M212.1,76.7v3.1h-0.2c-0.1-0.6-0.2-1.1-0.4-1.4s-0.5-0.6-0.9-0.8c-0.4-0.2-0.8-0.3-1.2-0.3
					c-0.5,0-0.8,0.1-1.1,0.4c-0.3,0.3-0.4,0.6-0.4,1c0,0.3,0.1,0.5,0.3,0.7c0.3,0.3,0.9,0.8,1.9,1.3c0.8,0.4,1.4,0.8,1.7,1
					c0.3,0.2,0.5,0.5,0.7,0.8c0.2,0.3,0.2,0.7,0.2,1c0,0.7-0.3,1.3-0.8,1.7c-0.5,0.5-1.2,0.7-2,0.7c-0.3,0-0.5,0-0.7-0.1
					c-0.1,0-0.4-0.1-0.8-0.2c-0.4-0.1-0.7-0.2-0.8-0.2c-0.1,0-0.2,0-0.3,0.1c-0.1,0.1-0.1,0.2-0.1,0.4h-0.2V83h0.2
					c0.1,0.6,0.3,1.1,0.5,1.4c0.2,0.3,0.5,0.6,0.9,0.8s0.8,0.3,1.3,0.3c0.5,0,1-0.1,1.3-0.4s0.5-0.6,0.5-1c0-0.2-0.1-0.4-0.2-0.7
					c-0.1-0.2-0.3-0.4-0.6-0.6c-0.2-0.1-0.6-0.4-1.4-0.8c-0.8-0.4-1.3-0.8-1.6-1c-0.3-0.3-0.6-0.5-0.7-0.8c-0.2-0.3-0.2-0.6-0.2-1
					c0-0.6,0.2-1.2,0.7-1.7c0.5-0.5,1.1-0.7,1.9-0.7c0.5,0,1,0.1,1.5,0.3c0.2,0.1,0.4,0.2,0.5,0.2c0.1,0,0.2,0,0.3-0.1
					c0.1-0.1,0.1-0.2,0.2-0.4H212.1z"/>
			</g>
		</g>
	</g>
</g>
</svg>
