<svg xmlns="http://www.w3.org/2000/svg" viewBox="0 0 213.66 91.35"><defs><style>.cls-1{fill:#525d29;}.cls-2{fill:#decf57;}.cls-3{font-size:18.73px;}.cls-3,.cls-8{fill:#221f20;font-family:TimesNewRomanPSMT, Times New Roman;}.cls-4{letter-spacing:0em;}.cls-5{letter-spacing:-0.01em;}.cls-6{letter-spacing:-0.01em;}.cls-7{letter-spacing:0em;}.cls-8{font-size:13.49px;}.cls-9{letter-spacing:-0.03em;}.cls-10{letter-spacing:-0.11em;}.cls-11{letter-spacing:-0.05em;}.cls-12{letter-spacing:0em;}</style></defs><g id="Layer_2" data-name="Layer 2"><g id="Layer_1-2" data-name="Layer 1"><path class="cls-1" d="M58.11,31.69A22.79,22.79,0,0,0,48,34a24.36,24.36,0,0,0-8.22,6.49,5.84,5.84,0,0,1,1-2.32A25.48,25.48,0,0,1,51,27.29a24.44,24.44,0,0,1,9.66-2.72A40.11,40.11,0,0,1,74.49,25.7c1.25.32,1.28.46.37,1.39A40,40,0,0,1,59.78,37.18a31.28,31.28,0,0,1-13.63,1.9c-.23,0-.57.06-.65-.22s.19-.43.36-.6a22.79,22.79,0,0,1,11.2-6.21,1.84,1.84,0,0,0,1-.36Z"/><path class="cls-1" d="M43.65,16.8c-5.1,5.59-6.86,12.14-5.86,19.56a30.84,30.84,0,0,1-2.22-6.55c-1.78-8,.34-15.08,5.59-21.28A45.7,45.7,0,0,1,50.23.42c1-.65,1.16-.6,1.25.54C52,12.1,49.55,22.19,41.27,30.27c-.23.22-.45.68-.82.54s-.17-.63-.2-1A22.85,22.85,0,0,1,43.6,17.06a.44.44,0,0,0,0-.26Z"/><path class="cls-1" d="M35.43,40.05c-4.79-5.33-10.51-8.17-17.52-8.25a32,32,0,0,1,6.5,2.55,23.92,23.92,0,0,1,5.15,3.88c.17.17.46.34.37.63s-.48.2-.76.22c-9,.63-16.9-2.32-23.93-7.82A36.07,36.07,0,0,1,.31,26.78c-.45-.54-.45-.82.28-1,6.41-1.53,12.85-2,19.31-.31,5.81,1.56,10,5.19,13.29,10.09.77,1.11,1.36,2.32,2,3.49a1.23,1.23,0,0,1,.2,1Z"/><path class="cls-2" d="M47.82,49.66a33.27,33.27,0,0,1,4.31,1.39,44.27,44.27,0,0,1,12.22,6.52c3.82,3,6.94,6.54,8.3,11.39A17.73,17.73,0,0,1,54.51,91.3a13.73,13.73,0,0,1-4-.74c-.2-.06-.45-.08-.51-.34s.23-.25.37-.4c.82-.79,1.67-1.58,2.47-2.41a1.81,1.81,0,0,1,1.5-.62A14.12,14.12,0,0,0,69.16,73.64c.43-5.76-2.29-10-6.52-13.47a35.2,35.2,0,0,0-10.91-5.86,2.69,2.69,0,0,1-1.33-1c-.77-1.05-1.59-2-2.41-3-.11-.14-.34-.28-.17-.65Z"/><path class="cls-2" d="M53,56.91c.37-.19.65,0,.93.12a28.09,28.09,0,0,1,9.7,6.4,12,12,0,0,1-2.78,18.74A12.18,12.18,0,0,1,57,83.59c-.31,0-.77.2-.91-.2a.9.9,0,0,1,.51-1c.62-.34,1.28-.62,1.9-1A11.77,11.77,0,0,0,63.3,66.44c-1.25-3-3.63-5.13-6.3-6.95a19.34,19.34,0,0,0-3.4-2c-.25-.12-.56-.26-.62-.63Z"/><path class="cls-2" d="M52.58,62A60.81,60.81,0,0,0,38.86,44.78a1.22,1.22,0,0,0-1.93,0,77.8,77.8,0,0,0-9,9.92,46.85,46.85,0,0,0-5.58,9.42,23.57,23.57,0,0,0-2.16,9.83,17.32,17.32,0,0,0,3.21,9.72,17.58,17.58,0,0,0,14.14,7.71A17.82,17.82,0,0,0,49.1,87.27,17.07,17.07,0,0,0,55.59,73,25.14,25.14,0,0,0,52.58,62ZM39.8,86.54A13.66,13.66,0,0,1,26.59,81a13.88,13.88,0,0,1-2.52-12,26.6,26.6,0,0,1,3.54-8.42,53.47,53.47,0,0,1,9.3-11.14c1-.94,1-.88,2,0a53.05,53.05,0,0,1,7.42,8.19A28.41,28.41,0,0,1,52,70.24a19,19,0,0,1,.11,2.15A14.07,14.07,0,0,1,39.8,86.54Z"/><path class="cls-2" d="M30.07,80.16a20.86,20.86,0,0,0,2.44,1c4.28,1.19,8.28.68,11.68-2.38,3.71-3.35,4.74-7.6,3.6-12.39A26.14,26.14,0,0,0,42,55.75,5.12,5.12,0,0,1,41,54.31a21.17,21.17,0,0,1,1.59,1.55,35.15,35.15,0,0,1,6.61,10.41c1.36,3.71,1.58,7.45-.34,11a11.35,11.35,0,0,1-9.84,6.35,11.58,11.58,0,0,1-8.7-3,.51.51,0,0,1-.29-.48Z"/><text class="cls-3" transform="translate(80.76 69.35)"><tspan class="cls-4">O</tspan><tspan class="cls-5" x="13.49" y="0">L</tspan><tspan class="cls-6" x="24.74" y="0">I</tspan><tspan class="cls-7" x="30.74" y="0">V</tspan><tspan x="44.23" y="0">E</tspan></text><text class="cls-8" transform="translate(80.75 85.83)">VENTURE<tspan class="cls-9" x="62.93" y="0"> </tspan><tspan class="cls-10" x="65.94" y="0">P</tspan><tspan x="71.94" y="0">A</tspan><tspan class="cls-11" x="81.68" y="0">R</tspan><tspan class="cls-12" x="89.93" y="0">TNERS</tspan></text></g></g></svg>