<?xml version="1.0" encoding="utf-8"?>
<!-- Generator: Adobe Illustrator 25.2.0, SVG Export Plug-In . SVG Version: 6.00 Build 0)  -->
<svg version="1.1" id="Layer_1" xmlns="http://www.w3.org/2000/svg" xmlns:xlink="http://www.w3.org/1999/xlink" x="0px" y="0px"
	 viewBox="0 0 213.7 91.3" style="enable-background:new 0 0 213.7 91.3;" xml:space="preserve">
<style type="text/css">
	.st0{fill:#525D29;}
	.st1{fill:#DECF57;}
	.st2{stroke:#000000;stroke-miterlimit:10;}
	.st3{font-family:'TimesNewRomanPSMT';}
	.st4{font-size:28.9494px;}
	.st5{fill:#221F20;}
	.st6{font-size:13.49px;}
	.st7{letter-spacing:-1;}
</style>
<g id="Layer_2_1_">
	<g id="Layer_1-2">
		<path class="st0" d="M58.1,31.7c-3.5,0-7,0.8-10.1,2.3c-3.2,1.5-6,3.8-8.2,6.5c0.2-0.8,0.5-1.6,1-2.3c2.2-4.6,5.8-8.4,10.2-10.9
			c3-1.6,6.3-2.5,9.7-2.7c4.6-0.4,9.3,0,13.8,1.1c1.2,0.3,1.3,0.5,0.4,1.4c-4.2,4.5-9.3,7.9-15.1,10.1c-4.3,1.6-9,2.3-13.6,1.9
			c-0.2,0-0.6,0.1-0.7-0.2s0.2-0.4,0.4-0.6c3.1-3.1,6.9-5.3,11.2-6.2C57.4,32,57.8,31.9,58.1,31.7L58.1,31.7z"/>
		<path class="st0" d="M43.7,16.8c-5.1,5.6-6.9,12.1-5.9,19.6c-1-2.1-1.7-4.3-2.2-6.5c-1.8-8,0.3-15.1,5.6-21.3
			c2.6-3.1,5.7-5.8,9.1-8.1c1-0.6,1.2-0.6,1.2,0.5c0.5,11.1-1.9,21.2-10.2,29.3c-0.2,0.2-0.5,0.7-0.8,0.5s-0.2-0.6-0.2-1
			c-0.2-4.5,1-8.9,3.3-12.8C43.6,17,43.6,16.9,43.7,16.8L43.7,16.8z"/>
		<path class="st0" d="M35.4,40c-4.8-5.3-10.5-8.2-17.5-8.2c2.3,0.6,4.4,1.5,6.5,2.5c1.9,1.1,3.6,2.4,5.1,3.9
			c0.2,0.2,0.5,0.3,0.4,0.6s-0.5,0.2-0.8,0.2c-9,0.6-16.9-2.3-23.9-7.8c-1.8-1.3-3.4-2.8-4.9-4.5c-0.4-0.5-0.4-0.8,0.3-1
			c6.4-1.5,12.9-2,19.3-0.3c5.8,1.6,10,5.2,13.3,10.1c0.8,1.1,1.4,2.3,2,3.5C35.4,39.3,35.5,39.7,35.4,40L35.4,40z"/>
		<path class="st1" d="M47.8,49.7c1.5,0.4,2.9,0.8,4.3,1.4c4.4,1.5,8.5,3.7,12.2,6.5c3.8,3,6.9,6.5,8.3,11.4
			c2.6,9.5-3,19.2-12.5,21.8c-1.8,0.5-3.8,0.7-5.7,0.6c-1.4,0-2.7-0.3-4-0.7c-0.2-0.1-0.5-0.1-0.5-0.3s0.2-0.2,0.4-0.4
			c0.8-0.8,1.7-1.6,2.5-2.4c0.4-0.4,0.9-0.7,1.5-0.6c7.7,0.4,14.3-5.5,14.8-13.2c0.4-5.8-2.3-10-6.5-13.5c-3.3-2.6-7-4.6-10.9-5.9
			c-0.5-0.2-1-0.5-1.3-1c-0.8-1-1.6-2-2.4-3C47.9,50.2,47.7,50,47.8,49.7z"/>
		<path class="st1" d="M53,56.9c0.4-0.2,0.7,0,0.9,0.1c3.6,1.4,6.9,3.6,9.7,6.4c4.6,4.8,4.4,12.4-0.4,17c-0.7,0.7-1.5,1.3-2.4,1.8
			c-1.2,0.7-2.5,1.2-3.9,1.4c-0.3,0-0.8,0.2-0.9-0.2c-0.1-0.4,0.1-0.8,0.5-1c0.6-0.3,1.3-0.6,1.9-1c5.2-3,7.2-9.5,4.8-14.9
			c-1.2-3-3.6-5.1-6.3-7c-1.1-0.8-2.2-1.5-3.4-2C53.3,57.4,53,57.2,53,56.9L53,56.9z"/>
		<path class="st1" d="M52.6,62c-3.5-6.5-8.1-12.4-13.7-17.2c-0.4-0.5-1.2-0.6-1.7-0.2c-0.1,0.1-0.2,0.1-0.2,0.2
			c-3.3,3-6.3,6.4-9,9.9c-2.2,2.9-4.1,6.1-5.6,9.4c-1.4,3.1-2.2,6.4-2.2,9.8c0.1,3.5,1.2,6.9,3.2,9.7c3.2,4.7,8.5,7.6,14.1,7.7
			c4.2,0,8.3-1.4,11.6-4.1c4.3-3.4,6.8-8.7,6.5-14.3C55.4,69.2,54.4,65.4,52.6,62z M39.8,86.5c-5.1,0.8-10.2-1.3-13.2-5.5
			c-2.7-3.4-3.6-7.8-2.5-12c0.7-3,1.9-5.8,3.5-8.4c2.6-4.1,5.7-7.9,9.3-11.1c1-0.9,1-0.9,2,0c2.8,2.5,5.2,5.2,7.4,8.2
			c2.9,3.7,4.8,8,5.7,12.6c0.1,0.7,0.1,1.4,0.1,2.2C52.2,79.6,46.9,85.6,39.8,86.5z"/>
		<path class="st1" d="M30.1,80.2c0.8,0.4,1.6,0.7,2.4,1c4.3,1.2,8.3,0.7,11.7-2.4c3.7-3.3,4.7-7.6,3.6-12.4
			c-1.1-4-3.1-7.6-5.8-10.6c-0.4-0.4-0.8-0.9-1-1.4c0.6,0.5,1.1,1,1.6,1.5c2.8,3.1,5,6.6,6.6,10.4c1.4,3.7,1.6,7.4-0.3,11
			C47,81,43.2,83.5,39,83.6c-3.2,0.2-6.3-0.8-8.7-3C30.1,80.5,30,80.3,30.1,80.2L30.1,80.2z"/>
		<g>
			<text transform="matrix(1 0 0 1 78.9918 69.0273)" class="st2 st3 st4">O</text>
			<text transform="matrix(1 0 0 1 99.8419 69.0273)" class="st2 st3 st4">L</text>
			<text transform="matrix(1 0 0 1 117.2306 69.0273)" class="st2 st3 st4">I</text>
			<text transform="matrix(1 0 0 1 126.504 69.0273)" class="st2 st3 st4">V</text>
			<text transform="matrix(1 0 0 1 147.3546 69.0273)" class="st2 st3 st4">E</text>
		</g>
		<text transform="matrix(1 0 0 1 80.75 85.83)" class="st5 st3 st6">VENTURE</text>
		<text transform="matrix(1 0 0 1 143.68 85.83)" class="st5 st3 st6"> </text>
		<text transform="matrix(1 0 0 1 146.69 85.83)" class="st5 st3 st6 st7">P</text>
		<text transform="matrix(1 0 0 1 152.69 85.83)" class="st5 st3 st6">A</text>
		<text transform="matrix(1 0 0 1 162.43 85.83)" class="st5 st3 st6">R</text>
		<text transform="matrix(1 0 0 1 170.68 85.83)" class="st5 st3 st6">TNERS</text>
	</g>
</g>
</svg>
